<svg version="1.0" xmlns="http://www.w3.org/2000/svg"
 width="48.000000pt" height="48.000000pt" viewBox="0 0 48.000000 48.000000"
 preserveAspectRatio="xMidYMid meet">

<g transform="translate(0.000000,48.000000) scale(0.100000,-0.100000)"
fill="#fff" stroke="none">
<path d="M96 374 c-23 -23 -23 -245 0 -268 23 -23 265 -23 288 0 23 23 23 245
0 268 -23 23 -265 23 -288 0z m269 -159 l0 -90 -125 0 -125 0 -3 79 c-2 44 -1
85 2 93 4 11 32 13 128 11 l123 -3 0 -90z"/>
<path d="M159 253 c-13 -15 -11 -16 13 -10 30 8 47 -7 20 -18 -16 -6 -16 -7 1
-16 29 -17 20 -32 -15 -25 -30 6 -32 5 -16 -10 22 -22 68 -11 68 16 0 11 -5
20 -11 20 -8 0 -8 5 1 15 10 12 10 18 0 30 -16 20 -44 19 -61 -2z"/>
<path d="M253 244 c-15 -24 -15 -29 -2 -53 33 -59 100 -9 71 54 -15 33 -47 32
-69 -1z m53 -18 c7 -29 -1 -46 -22 -46 -9 0 -14 11 -14 35 0 41 26 49 36 11z"/>
</g>
</svg>
